<svg width="16" height="16" viewBox="0 0 16 16" fill="none" xmlns="http://www.w3.org/2000/svg">
<path d="M8.00001 8.66666C9.10468 8.66666 10 9.562 10 10.6667C10 11.2333 9.76468 11.744 9.38668 12.108L8.11334 13.3333H10V14.6667H6.00001V13.5173L8.46201 11.1473C8.58868 11.0253 8.66668 10.8553 8.66668 10.6667C8.66668 10.2987 8.36801 10 8.00001 10C7.63201 10 7.33334 10.2987 7.33334 10.6667H6.00001C6.00001 9.562 6.89534 8.66666 8.00001 8.66666ZM12 8.66666V11.3333H13.3333V8.66666H14.6667V14.6667H13.3333V12.6667H10.6667V8.66666H12ZM2.66668 8C2.66668 9.68466 3.44734 11.1867 4.66668 12.164V13.7747C2.67401 12.622 1.33334 10.468 1.33334 8H2.66668ZM8.00001 1.33333C11.4567 1.33333 14.2993 3.96466 14.6333 7.33333H13.292C12.964 4.70266 10.72 2.66666 8.00001 2.66666C6.16668 2.66666 4.54934 3.59133 3.59001 4.99999H5.33334V6.33333H1.33334V2.33333H2.66668V3.99999C3.88268 2.37999 5.81934 1.33333 8.00001 1.33333Z" fill="white"/>
</svg>
