<svg width="16" height="16" viewBox="0 0 16 16" fill="none" xmlns="http://www.w3.org/2000/svg">
<path d="M6.22 7.66666H7.66666C8.46231 7.66666 9.22537 7.98273 9.78798 8.54534C10.3506 9.10795 10.6667 9.87101 10.6667 10.6667H5.99933L6 11.3333H11.3333V10.6667C11.3312 9.9573 11.1263 9.26335 10.7427 8.66666H12.6667C13.2968 8.66649 13.9142 8.84495 14.447 9.18136C14.9799 9.51776 15.4065 9.99833 15.6773 10.5673C14.1007 12.648 11.548 14 8.66666 14C6.826 14 5.26666 13.6067 4 12.9167V6.71399C4.81107 6.83018 5.57698 7.15885 6.22 7.66666ZM3.33333 12.6667C3.33333 12.8435 3.26309 13.013 3.13807 13.1381C3.01304 13.2631 2.84348 13.3333 2.66666 13.3333H1.33333C1.15652 13.3333 0.98695 13.2631 0.861926 13.1381C0.736902 13.013 0.666664 12.8435 0.666664 12.6667V6.66666C0.666664 6.48985 0.736902 6.32028 0.861926 6.19526C0.98695 6.07023 1.15652 6 1.33333 6H2.66666C2.84348 6 3.01304 6.07023 3.13807 6.19526C3.26309 6.32028 3.33333 6.48985 3.33333 6.66666V12.6667ZM12 3.33333C12.5304 3.33333 13.0391 3.54404 13.4142 3.91911C13.7893 4.29419 14 4.8029 14 5.33333C14 5.86376 13.7893 6.37247 13.4142 6.74754C13.0391 7.12261 12.5304 7.33333 12 7.33333C11.4696 7.33333 10.9609 7.12261 10.5858 6.74754C10.2107 6.37247 10 5.86376 10 5.33333C10 4.8029 10.2107 4.29419 10.5858 3.91911C10.9609 3.54404 11.4696 3.33333 12 3.33333ZM7.33333 1.33333C7.86376 1.33333 8.37247 1.54404 8.74754 1.91911C9.12262 2.29419 9.33333 2.8029 9.33333 3.33333C9.33333 3.86376 9.12262 4.37247 8.74754 4.74754C8.37247 5.12261 7.86376 5.33333 7.33333 5.33333C6.8029 5.33333 6.29419 5.12261 5.91912 4.74754C5.54404 4.37247 5.33333 3.86376 5.33333 3.33333C5.33333 2.8029 5.54404 2.29419 5.91912 1.91911C6.29419 1.54404 6.8029 1.33333 7.33333 1.33333Z" fill="white"/>
</svg>
