<svg width="12" height="12" viewBox="0 0 12 12" fill="none" xmlns="http://www.w3.org/2000/svg">
<path fill-rule="evenodd" clip-rule="evenodd" d="M10.2956 12H6.54559V8.18134H10.9089V11.394C10.9089 11.7287 10.6343 12 10.2956 12ZM1.09113 11.3937V8.18168H5.45446V12.0003H1.70446C1.36579 12.0003 1.09113 11.7283 1.09113 11.3937ZM11.3997 2.72721H10.1717C10.2911 2.47854 10.3637 2.20321 10.3637 1.90854C10.3637 0.856545 9.50706 -0.00012207 8.45439 -0.00012207C7.20039 -0.00012207 6.44039 0.879878 5.99973 1.71254C5.55906 0.879878 4.79973 -0.00012207 3.54573 -0.00012207C2.49306 -0.00012207 1.63573 0.856545 1.63573 1.90854C1.63573 2.20321 1.70906 2.47854 1.82839 2.72721H0.600392C0.269059 2.72721 -0.000274658 3.11788 -0.000274658 3.60054V6.21788C-0.000274658 6.69988 0.269059 7.09121 0.600392 7.09121H1.09106H5.45439V2.72721H6.54573V7.09121H10.9091H11.3997C11.7311 7.09121 11.9997 6.69988 11.9997 6.21788V3.60054C11.9997 3.11788 11.7311 2.72721 11.3997 2.72721ZM8.45439 2.72721H6.73373C6.99106 2.04988 7.52039 1.09121 8.45439 1.09121C8.90573 1.09121 9.27306 1.45788 9.27306 1.90854C9.27306 2.35988 8.90573 2.72721 8.45439 2.72721ZM3.54573 2.72721C3.09439 2.72721 2.72706 2.35988 2.72706 1.90854C2.72706 1.45788 3.09439 1.09121 3.54573 1.09121C4.47973 1.09121 5.00906 2.04988 5.26639 2.72721H3.54573Z" fill="white"/>
</svg>
