<svg width="20" height="20" viewBox="0 0 20 20" fill="none" xmlns="http://www.w3.org/2000/svg">
<g opacity="0.4">
<path fill-rule="evenodd" clip-rule="evenodd" d="M2.2915 9.16666C2.2915 5.3697 5.36955 2.29166 9.1665 2.29166C12.9635 2.29166 16.0415 5.3697 16.0415 9.16666C16.0415 12.9636 12.9635 16.0417 9.1665 16.0417C5.36955 16.0417 2.2915 12.9636 2.2915 9.16666ZM9.1665 1.04166C4.67919 1.04166 1.0415 4.67934 1.0415 9.16666C1.0415 13.654 4.67919 17.2917 9.1665 17.2917C11.1852 17.2917 13.0319 16.5555 14.4529 15.3369L17.0579 17.9419C17.302 18.186 17.6977 18.186 17.9418 17.9419C18.1859 17.6979 18.1859 17.3021 17.9418 17.058L15.3368 14.453C16.5553 13.0321 17.2915 11.1853 17.2915 9.16666C17.2915 4.67934 13.6538 1.04166 9.1665 1.04166Z" fill="white"/>
</g>
</svg>
