<svg width="20" height="20" viewBox="0 0 20 20" fill="none" xmlns="http://www.w3.org/2000/svg">
<path fill-rule="evenodd" clip-rule="evenodd" d="M5.44196 2.10845C5.68604 1.86437 5.68604 1.46864 5.44196 1.22456C5.19788 0.980484 4.80216 0.980484 4.55808 1.22456L1.22475 4.5579C0.980668 4.80197 0.980668 5.1977 1.22475 5.44178L4.55808 8.77511C4.80216 9.01919 5.19788 9.01919 5.44196 8.77511C5.68604 8.53103 5.68604 8.13531 5.44196 7.89123L3.17557 5.62484H13.3334C13.6785 5.62484 13.9584 5.34502 13.9584 4.99984C13.9584 4.65466 13.6785 4.37484 13.3334 4.37484H3.17557L5.44196 2.10845ZM14.5581 12.1084C14.314 11.8644 14.314 11.4686 14.5581 11.2246C14.8021 10.9805 15.1979 10.9805 15.4419 11.2246L18.7753 14.5579C19.0194 14.802 19.0194 15.1977 18.7753 15.4418L15.4419 18.7751C15.1979 19.0192 14.8021 19.0192 14.5581 18.7751C14.314 18.531 14.314 18.1353 14.5581 17.8912L16.8244 15.6248H6.66667C6.32149 15.6248 6.04167 15.345 6.04167 14.9998C6.04167 14.6547 6.32149 14.3748 6.66667 14.3748H16.8244L14.5581 12.1084Z" fill="white"/>
</svg>
