<svg width="16" height="16" viewBox="0 0 16 16" fill="none" xmlns="http://www.w3.org/2000/svg">
<path fill-rule="evenodd" clip-rule="evenodd" d="M6.66658 3.66667C6.66658 3.48267 6.81592 3.33333 6.99992 3.33333H8.99992C9.18392 3.33333 9.33325 3.48267 9.33325 3.66667V4.66667H6.66658V3.66667ZM4.66658 14H11.3333V4.66667H10.6666V3.66667C10.6666 2.748 9.91858 2 8.99992 2H6.99992C6.08125 2 5.33325 2.748 5.33325 3.66667V4.66667H4.66658V14ZM12.6666 4.66667V14C13.7693 14 14.6666 13.1027 14.6666 12V6.66667C14.6666 5.564 13.7693 4.66667 12.6666 4.66667ZM1.33325 6.66667C1.33325 5.564 2.23059 4.66667 3.33325 4.66667V14C2.23059 14 1.33325 13.1027 1.33325 12V6.66667Z" fill="white"/>
</svg>
