<svg width="16" height="16" viewBox="0 0 16 16" fill="none" xmlns="http://www.w3.org/2000/svg">
<path d="M9.33323 1.33333C10.5532 1.33275 11.7365 1.75044 12.6858 2.51675C13.6351 3.28305 14.2929 4.35165 14.5497 5.54431C14.8064 6.73697 14.6465 7.9816 14.0966 9.07062C13.5467 10.1596 12.6401 11.0272 11.5279 11.5287C11.1724 12.3146 10.6316 13.0026 9.9518 13.5336C9.27203 14.0646 8.4736 14.4229 7.62498 14.5776C6.77637 14.7322 5.90289 14.6788 5.07947 14.4218C4.25605 14.1648 3.50725 13.7119 2.8973 13.1019C2.28735 12.492 1.83445 11.7432 1.57744 10.9198C1.32043 10.0963 1.26697 9.22286 1.42167 8.37424C1.57636 7.52562 1.93458 6.72719 2.46561 6.04742C2.99664 5.36765 3.68462 4.82682 4.47056 4.47133C4.89332 3.53592 5.57695 2.74233 6.43946 2.18573C7.30196 1.62914 8.30672 1.33317 9.33323 1.33333ZM7.33323 6H5.9999V6.66666C5.56664 6.66561 5.15 6.83331 4.83828 7.13422C4.52657 7.43514 4.34429 7.84561 4.33007 8.27863C4.31585 8.71166 4.47082 9.1332 4.76212 9.45391C5.05343 9.77462 5.45817 9.96929 5.89056 9.99666L5.9999 10H7.33323L7.39323 10.0053C7.47008 10.0192 7.53961 10.0597 7.58968 10.1197C7.63975 10.1796 7.66717 10.2552 7.66717 10.3333C7.66717 10.4114 7.63975 10.4871 7.58968 10.547C7.53961 10.607 7.47008 10.6474 7.39323 10.6613L7.33323 10.6667H4.66656V12H5.9999V12.6667H7.33323V12C7.76649 12.001 8.18313 11.8333 8.49484 11.5324C8.80655 11.2315 8.98883 10.8211 9.00305 10.388C9.01727 9.955 8.8623 9.53346 8.571 9.21275C8.2797 8.89203 7.87495 8.69736 7.44256 8.67L7.33323 8.66666H5.9999L5.93989 8.66133C5.86304 8.64741 5.79351 8.60695 5.74344 8.547C5.69338 8.48706 5.66595 8.41143 5.66595 8.33333C5.66595 8.25522 5.69338 8.1796 5.74344 8.11965C5.79351 8.05971 5.86304 8.01925 5.93989 8.00533L5.9999 8H8.66656V6.66666H7.33323V6ZM9.33323 2.66666C8.76835 2.666 8.20977 2.78529 7.69444 3.01664C7.17911 3.24798 6.71878 3.58611 6.34389 4.00866C7.0974 3.96292 7.85204 4.07766 8.5579 4.34529C9.26376 4.61293 9.90477 5.02736 10.4385 5.56118C10.9723 6.09501 11.3866 6.73606 11.6542 7.44195C11.9217 8.14784 12.0364 8.90249 11.9906 9.656C12.5967 9.11708 13.0247 8.40663 13.2178 7.61887C13.4109 6.83111 13.3599 6.00327 13.0717 5.24514C12.7834 4.48701 12.2715 3.83442 11.6038 3.37392C10.9362 2.91341 10.1443 2.66676 9.33323 2.66666Z" fill="white"/>
</svg>
