<svg width="20" height="20" viewBox="0 0 20 20" fill="none" xmlns="http://www.w3.org/2000/svg">
<path fill-rule="evenodd" clip-rule="evenodd" d="M10.65 3.33341V2.34385C12.2834 2.48069 13.7716 3.1285 14.954 4.12695L14.5405 4.54038C14.2866 4.79417 14.2865 5.20573 14.5403 5.45962C14.7941 5.7135 15.2056 5.71358 15.4595 5.45978L15.8733 5.0462C16.8716 6.22865 17.5194 7.71672 17.6562 9.35008H16.6667C16.3077 9.35008 16.0167 9.6411 16.0167 10.0001C16.0167 10.3591 16.3077 10.6501 16.6667 10.6501L17.6562 10.6501C17.5194 12.2834 16.8716 13.7715 15.8733 14.954L15.4595 14.5404C15.2056 14.2866 14.7941 14.2867 14.5403 14.5405C14.2865 14.7944 14.2866 15.206 14.5405 15.4598L14.954 15.8732C13.6164 17.0026 11.8877 17.6834 10 17.6834C8.11236 17.6834 6.3837 17.0027 5.04612 15.8734L5.45984 15.4598C5.71373 15.206 5.7138 14.7944 5.46001 14.5405C5.20622 14.2867 4.79466 14.2866 4.54077 14.5404L4.12687 14.9541C3.12843 13.7717 2.48061 12.2835 2.34377 10.6501H3.33333C3.69232 10.6501 3.98333 10.3591 3.98333 10.0001C3.98333 9.6411 3.69232 9.35008 3.33333 9.35008H2.34377C2.4806 7.71669 3.1284 6.22858 4.1268 5.04612L4.54038 5.4597C4.79422 5.71354 5.20578 5.71354 5.45962 5.4597C5.71346 5.20586 5.71346 4.7943 5.45962 4.54046L5.04604 4.12688C6.2285 3.12848 7.71661 2.48068 9.35 2.34385V3.33341C9.35 3.6924 9.64102 3.98341 10 3.98341C10.359 3.98341 10.65 3.6924 10.65 3.33341ZM10 1.01675C14.9614 1.01675 18.9833 5.03872 18.9833 10.0001C18.9833 14.9614 14.9614 18.9834 10 18.9834C5.03864 18.9834 1.01667 14.9614 1.01667 10.0001C1.01667 5.03872 5.03864 1.01675 10 1.01675ZM9.99995 7.50008L10.3868 6.97776C10.157 6.80752 9.84288 6.80752 9.61305 6.97777L9.99995 7.50008ZM10.3243 8.73764C10.213 8.59748 10.1013 8.47454 9.99997 8.37154C9.89865 8.47453 9.78697 8.59747 9.67567 8.73763C9.30283 9.20714 8.98333 9.80711 8.98333 10.463C8.98333 11.0062 9.14752 11.3497 9.33241 11.5506C9.51964 11.754 9.76179 11.8501 10 11.8501C10.2382 11.8501 10.4804 11.754 10.6676 11.5506C10.8525 11.3497 11.0167 11.0062 11.0167 10.463C11.0167 9.80712 10.6972 9.20716 10.3243 8.73764ZM12.3167 10.463C12.3167 9.39056 11.8028 8.50905 11.3423 7.92918C11.1078 7.63382 10.8742 7.40038 10.6988 7.24009C10.6107 7.15961 10.5362 7.09663 10.4821 7.0526C10.4551 7.03055 10.4331 7.01318 10.4169 7.00067L10.3972 6.98553L10.3908 6.98072L10.3885 6.97901L10.3876 6.97833L10.3872 6.97803C10.387 6.97789 10.3868 6.97776 9.99995 7.50008C9.61305 6.97777 9.61287 6.97791 9.61269 6.97804L9.61229 6.97834L9.61137 6.97902L9.60908 6.98073L9.60269 6.98554L9.58296 7.00068C9.56682 7.0132 9.5448 7.03056 9.51775 7.05261C9.4637 7.09665 9.38922 7.15962 9.30112 7.24011C9.12568 7.40039 8.89216 7.63383 8.65762 7.9292C8.19714 8.50906 7.68333 9.39057 7.68333 10.463C7.68333 11.2779 7.93582 11.9529 8.37592 12.431C8.8137 12.9066 9.40487 13.1501 10 13.1501C10.5951 13.1501 11.1863 12.9066 11.6241 12.431C12.0642 11.9529 12.3167 11.2779 12.3167 10.463Z" fill="white"/>
</svg>
