<svg width="16" height="16" viewBox="0 0 16 16" fill="none" xmlns="http://www.w3.org/2000/svg">
<path d="M12.9166 10.0686C13.3492 9.04084 13.4488 7.90331 13.2013 6.81599C12.9539 5.72867 12.3719 4.74623 11.5372 4.00681C10.7025 3.26738 9.65706 2.80815 8.54784 2.69368C7.43861 2.57921 6.3214 2.81526 5.35328 3.36864L4.69194 2.21064C5.7037 1.63238 6.8494 1.32955 8.01475 1.33236C9.18009 1.33516 10.3243 1.64351 11.3333 2.22664C14.3266 3.95464 15.4733 7.65464 14.0779 10.74L14.9726 11.256L12.1959 12.732L12.0859 9.5893L12.9166 10.0686ZM3.08328 5.9313C2.65071 6.9591 2.55113 8.09663 2.79856 9.18395C3.04598 10.2713 3.62795 11.2537 4.46266 11.9931C5.29737 12.7326 6.34283 13.1918 7.45205 13.3063C8.56128 13.4207 9.67849 13.1847 10.6466 12.6313L11.3079 13.7893C10.2962 14.3676 9.15048 14.6704 7.98514 14.6676C6.8198 14.6648 5.67557 14.3564 4.66661 13.7733C1.67328 12.0453 0.526611 8.3453 1.92194 5.25997L1.02661 4.74464L3.80328 3.26864L3.91328 6.4113L3.08261 5.93197L3.08328 5.9313ZM5.66661 9.3333H9.33328C9.42168 9.3333 9.50647 9.29818 9.56898 9.23567C9.63149 9.17316 9.66661 9.08838 9.66661 8.99997C9.66661 8.91156 9.63149 8.82678 9.56898 8.76427C9.50647 8.70176 9.42168 8.66664 9.33328 8.66664H6.66661C6.22458 8.66664 5.80066 8.49104 5.4881 8.17848C5.17554 7.86592 4.99994 7.442 4.99994 6.99997C4.99994 6.55794 5.17554 6.13402 5.4881 5.82146C5.80066 5.5089 6.22458 5.3333 6.66661 5.3333H7.33328V4.66664H8.66661V5.3333H10.3333V6.66664H6.66661C6.57821 6.66664 6.49342 6.70176 6.43091 6.76427C6.3684 6.82678 6.33328 6.91156 6.33328 6.99997C6.33328 7.08838 6.3684 7.17316 6.43091 7.23567C6.49342 7.29818 6.57821 7.3333 6.66661 7.3333H9.33328C9.7753 7.3333 10.1992 7.5089 10.5118 7.82146C10.8243 8.13402 10.9999 8.55794 10.9999 8.99997C10.9999 9.442 10.8243 9.86592 10.5118 10.1785C10.1992 10.491 9.7753 10.6666 9.33328 10.6666H8.66661V11.3333H7.33328V10.6666H5.66661V9.3333Z" fill="white"/>
</svg>
