<svg width="16" height="16" viewBox="0 0 16 16" fill="none" xmlns="http://www.w3.org/2000/svg">
<path d="M12 13.3333H4V14.6667H2.66667V13.3333H2C1.82319 13.3333 1.65362 13.2631 1.5286 13.1381C1.40357 13.013 1.33334 12.8435 1.33334 12.6667V2.66667C1.33334 2.48986 1.40357 2.32029 1.5286 2.19526C1.65362 2.07024 1.82319 2 2 2H14C14.1768 2 14.3464 2.07024 14.4714 2.19526C14.5964 2.32029 14.6667 2.48986 14.6667 2.66667V12.6667C14.6667 12.8435 14.5964 13.013 14.4714 13.1381C14.3464 13.2631 14.1768 13.3333 14 13.3333H13.3333V14.6667H12V13.3333ZM7.33334 9.24933V11.3333H8.66667V9.24933C9.29366 9.08551 9.8396 8.69909 10.2025 8.16222C10.5655 7.62535 10.7206 6.97473 10.639 6.33185C10.5573 5.68898 10.2445 5.09779 9.75886 4.66868C9.27324 4.23958 8.64804 4.00189 8 4C7.35049 3.99936 6.72308 4.23579 6.23552 4.66492C5.74796 5.09404 5.43378 5.68636 5.35195 6.3307C5.27012 6.97503 5.42626 7.62708 5.79108 8.16446C6.15589 8.70184 6.70428 9.0876 7.33334 9.24933ZM8 8C7.64638 8 7.30724 7.85952 7.05719 7.60948C6.80715 7.35943 6.66667 7.02029 6.66667 6.66667C6.66667 6.31305 6.80715 5.97391 7.05719 5.72386C7.30724 5.47381 7.64638 5.33333 8 5.33333C8.35362 5.33333 8.69276 5.47381 8.94281 5.72386C9.19286 5.97391 9.33334 6.31305 9.33334 6.66667C9.33334 7.02029 9.19286 7.35943 8.94281 7.60948C8.69276 7.85952 8.35362 8 8 8Z" fill="white"/>
</svg>
