<svg width="16" height="16" viewBox="0 0 16 16" fill="none" xmlns="http://www.w3.org/2000/svg">
<path d="M14.6666 4H9.99998C8.93911 4 7.9217 4.42143 7.17155 5.17157C6.42141 5.92172 5.99998 6.93913 5.99998 8C5.99998 9.06087 6.42141 10.0783 7.17155 10.8284C7.9217 11.5786 8.93911 12 9.99998 12H14.6666V13.3333C14.6666 13.5101 14.5964 13.6797 14.4714 13.8047C14.3464 13.9298 14.1768 14 14 14H1.99998C1.82317 14 1.6536 13.9298 1.52858 13.8047C1.40355 13.6797 1.33331 13.5101 1.33331 13.3333V2.66667C1.33331 2.48986 1.40355 2.32029 1.52858 2.19526C1.6536 2.07024 1.82317 2 1.99998 2H14C14.1768 2 14.3464 2.07024 14.4714 2.19526C14.5964 2.32029 14.6666 2.48986 14.6666 2.66667V4ZM9.99998 5.33333H15.3333V10.6667H9.99998C9.29274 10.6667 8.61446 10.3857 8.11436 9.88562C7.61426 9.38552 7.33331 8.70724 7.33331 8C7.33331 7.29276 7.61426 6.61448 8.11436 6.11438C8.61446 5.61428 9.29274 5.33333 9.99998 5.33333ZM9.99998 7.33333V8.66667H12V7.33333H9.99998Z" fill="white"/>
</svg>
